<?xml version="1.0" encoding="utf-8"?>
<!-- Generator: Adobe Illustrator 17.0.0, SVG Export Plug-In . SVG Version: 6.00 Build 0)  -->
<!DOCTYPE svg PUBLIC "-//W3C//DTD SVG 1.1//EN" "http://www.w3.org/Graphics/SVG/1.1/DTD/svg11.dtd">
<svg version="1.1" id="Layer_1" xmlns="http://www.w3.org/2000/svg" xmlns:xlink="http://www.w3.org/1999/xlink" x="0px" y="0px"
	 width="948px" height="409.572px" viewBox="0 0 948 409.572" enable-background="new 0 0 948 409.572" xml:space="preserve">
<title>Logo Green</title>
<g>
	<path fill="#FFFFFF" d="M387.74,2.242c-29.033-0.007-56.851,11.646-77.213,32.342V2.242h-15.682
		c-29.047-0.019-56.884,11.635-77.255,32.342V2.242h-15.638C141.985,2.289,93.383,50.89,93.336,110.859v166.867
		c-1.662,0-3.324,0-4.985,0c-4.183-0.006-8.355,0.437-12.442,1.321c-7.419,1.513-14.47,4.466-20.751,8.692
		c-4.467-10.337-14.647-17.034-25.908-17.045c-1.993-0.024-3.981,0.19-5.923,0.639c-15.071,3.759-24.242,19.022-20.483,34.093
		c3.037,12.179,13.777,20.871,26.321,21.302h0.81c-1.313,7.473-1.154,15.13,0.469,22.542c5.971,27.223,29.997,46.684,57.866,46.873
		c8.354-0.002,16.615-1.759,24.246-5.156c10.382,9.215,23.787,14.294,37.668,14.275h196.013
		c31.488,0.095,57.091-25.355,57.184-56.843c0-0.042,0-0.086,0-0.128V2.242H387.74z M387.74,348.291
		c-0.07,22.775-18.516,41.22-41.291,41.291H150.224c-14.01-0.021-27.053-7.145-34.643-18.92c-5.272,4.311-11.494,7.305-18.152,8.736
		c-3.027,0.637-6.111,0.966-9.204,0.98c-20.537-0.02-38.279-14.355-42.611-34.43c-1.219-5.788-1.219-11.767,0-17.556
		c0.301-1.674,0.714-3.325,1.235-4.943c0.085-1.058-0.002-2.123-0.256-3.154c-1.195-5.75-6.272-9.865-12.145-9.843
		c-0.887,0.005-1.77,0.091-2.642,0.255c-0.865,0.207-1.753,0.307-2.642,0.299c-6.872,0.003-12.445-5.566-12.447-12.438
		c-0.002-5.906,4.148-11.001,9.933-12.192c0.867-0.19,1.755-0.276,2.642-0.255c5.848,0.007,10.902,4.086,12.145,9.801
		c1.195,5.75,6.272,9.865,12.145,9.843c0.89,0.006,1.776-0.094,2.642-0.299c1.042-0.201,2.049-0.56,2.983-1.065
		c1.266-1.118,2.589-2.17,3.963-3.154c4.823-3.437,10.308-5.832,16.107-7.03c2.994-0.66,6.052-0.989,9.119-0.98
		c7.22-0.014,14.326,1.788,20.667,5.241V110.987c-0.095-51.304,41.419-92.969,92.723-93.064c0.057,0,0.113,0,0.17,0v92.936
		c-0.024-51.304,41.547-92.912,92.851-92.936c0.014,0,0.029,0,0.042,0v92.936c-0.024-51.304,41.547-92.912,92.851-92.936
		c0.014,0,0.029,0,0.042,0L387.74,348.291L387.74,348.291z"/>
	<path fill="#FFFFFF" d="M356.804,258.338v76.701c-0.07,13.002-10.605,23.518-23.607,23.564h-7.372v-15.468
		c-0.449-8.555-7.748-15.125-16.302-14.677c-7.927,0.416-14.261,6.75-14.677,14.677v15.511h-92.893v-15.511
		c-0.047-8.533-6.977-15.425-15.511-15.425l0,0c-8.519-0.024-15.444,6.864-15.468,15.383c0,0.014,0,0.029,0,0.042v15.511h-7.371
		c-13.028-0.024-23.583-10.579-23.607-23.607v-76.701c0.024-13.028,10.579-23.583,23.607-23.607h7.371V250.2
		c0,8.55,6.918,15.487,15.468,15.511l0,0c8.557-0.024,15.487-6.954,15.511-15.511v-15.468h92.893V250.2
		c-0.449,8.555,6.122,15.853,14.677,16.302c8.555,0.449,15.853-6.122,16.302-14.677c0.029-0.542,0.029-1.084,0-1.626v-15.468h7.372
		C346.216,234.777,356.757,245.319,356.804,258.338z"/>
	<path fill="#FFFFFF" d="M224.614,189.467c1.407,4.069,10.142,13.547,10.142,13.547c-25.615,0-42.106-7.225-42.106-14.778
		c0-5.322,0-21.286,0-21.286c0-4.872,2.471-7.343,7.343-7.343h17.193c4.895-0.023,6.912,1.463,6.936,6.358
		C224.121,165.964,222.694,183.913,224.614,189.467z"/>
	<path fill="#FFFFFF" d="M296.898,165.964c0.024-4.895,2.04-6.38,6.936-6.358h17.193c4.872,0,7.343,2.471,7.343,7.343
		c0,0,0,15.964,0,21.286c0,7.554-16.49,14.778-42.106,14.778c0,0,8.735-9.478,10.142-13.547
		C298.325,183.913,296.898,165.964,296.898,165.964z"/>
	<path fill="#FFFFFF" d="M185.719,32.453c-9.601,3.896-18.586,9.163-26.674,15.638c-7.73,6.289-14.343,13.837-19.558,22.329
		c-5.206,8.514-8.884,17.874-10.866,27.655c-0.213,1.235-0.554,2.472-0.724,3.707c-0.17,1.235-0.299,2.514-0.469,3.792
		c-0.427,2.472-0.597,5.156-0.895,7.798c-0.639,5.284-1.235,10.567-2.258,15.852c-1.065-5.284-1.662-10.567-2.344-15.852
		c-0.256-2.642-0.554-5.241-0.639-8.011c-0.234-2.751-0.234-5.516,0-8.267c0.735-11.192,4.202-22.034,10.099-31.575
		c5.78-9.586,13.754-17.662,23.266-23.564C164.006,36.138,174.713,32.862,185.719,32.453z"/>
	<path fill="#FFFFFF" d="M278.612,32.453c-9.141,3.791-17.738,8.777-25.567,14.828c-7.486,5.866-13.975,12.902-19.217,20.837
		c-5.209,7.94-9.161,16.635-11.718,25.78c-0.682,2.344-0.98,4.73-1.62,7.074c-0.639,2.344-0.724,4.815-1.151,7.244
		c-0.597,5.028-1.235,10.014-2.258,15.085c-1.065-5.071-1.662-10.056-2.301-15.085c0-2.557-0.341-5.199-0.427-7.84
		c-0.085-2.642,0.256-5.241,0.597-7.84c1.36-10.653,5.134-20.856,11.036-29.828c5.847-8.917,13.698-16.345,22.925-21.689
		C257.907,35.649,268.139,32.699,278.612,32.453z"/>
	<path fill="#FFFFFF" d="M371.547,32.453c-9.139,3.794-17.736,8.78-25.567,14.828c-7.462,5.879-13.936,12.913-19.175,20.837
		c-5.209,7.94-9.161,16.635-11.718,25.78c-0.724,2.344-1.023,4.73-1.62,7.074c-0.597,2.344-0.767,4.815-1.151,7.244
		c-0.639,5.028-1.235,10.014-2.258,15.085c-1.065-5.071-1.662-10.056-2.344-15.085c0-2.557-0.299-5.199-0.383-7.84
		c-0.085-2.642,0.213-5.241,0.554-7.84c1.374-10.657,5.163-20.859,11.079-29.828c5.883-8.862,13.764-16.217,23.01-21.477
		C350.918,35.821,361.101,32.798,371.547,32.453z"/>
	<g>
		<path fill="#FFFFFF" d="M473.574,254.219h27.226v9.621c6.353-7.986,14.884-11.98,25.774-11.98
			c10.164,0,18.696,3.449,25.593,10.347c7.08,6.897,10.528,15.427,10.528,25.774v60.624h-27.226V295.24
			c0-10.346-7.261-18.151-17.243-18.151c-9.982,0-17.425,7.806-17.425,18.151v53.364h-27.226L473.574,254.219L473.574,254.219z"/>
		<path fill="#FFFFFF" d="M612.613,254.219h20.51v23.051h-20.51v71.333h-27.226V277.27h-13.613v-23.051h13.613v-10.528
			c0-8.893,3.267-16.336,9.983-22.326c6.716-5.99,15.066-8.893,25.048-8.893h12.705v25.229h-10.346
			c-5.809,0-10.164,3.993-10.164,9.621V254.219z"/>
		<path fill="#FFFFFF" d="M639.839,254.219h12.887v-18.333h27.226v18.333h21.418v23.596h-21.418v35.395
			c0,5.809,4.357,9.983,10.347,9.983h11.072v25.411H685.76c-9.257,0-17.243-2.903-23.596-8.531
			c-6.353-5.809-9.438-13.069-9.438-21.6v-40.659h-12.887V254.219z"/>
		<path fill="#FFFFFF" d="M799.234,226.836c-7.094-6.503-15.566-9.656-25.615-9.656c-16.749,0-30.541,10.444-36.846,26.404
			l-7.488-3.547c7.29-18.719,24.038-30.737,44.333-30.737c12.414,0,22.856,3.941,31.526,11.822
			c8.67,7.882,13.005,17.341,13.005,28.374c0,5.714-1.576,11.428-4.532,17.142c-2.956,5.715-5.911,10.246-9.261,13.793
			c-3.153,3.548-7.882,8.276-14.186,14.384l-47.683,45.911h78.422v7.882h-91.426v-5.517l53.989-53.2l4.532-4.335l4.926-4.729
			l4.138-4.532c2.167-2.167,3.547-3.941,4.334-4.926c1.577-2.167,5.123-7.094,6.108-10.246c1.379-3.153,2.365-7.488,2.365-11.428
			C809.874,240.825,806.327,233.14,799.234,226.836z"/>
		<path fill="#FFFFFF" d="M833.323,257.376c0-13.596,4.729-25.023,14.385-34.285c9.655-9.26,21.674-13.792,36.058-13.792
			c14.385,0,26.404,4.532,36.059,13.792c9.655,9.261,14.581,20.689,14.581,34.285v44.53c0,13.596-4.926,25.023-14.581,34.285
			c-9.655,9.26-21.674,13.793-36.059,13.793c-14.384,0-26.403-4.533-36.058-13.793c-9.656-9.261-14.385-20.689-14.385-34.285
			V257.376z M841.204,302.103c0,11.23,4.138,20.885,12.217,28.57c8.078,7.686,18.325,11.429,30.343,11.429
			c12.02,0,22.266-3.744,30.344-11.429c8.276-7.685,12.414-17.34,12.414-28.57v-44.925c0-11.23-4.137-20.688-12.414-28.373
			c-8.079-7.686-18.325-11.626-30.344-11.626c-12.019,0-22.266,3.941-30.343,11.626c-8.079,7.685-12.217,17.142-12.217,28.373
			V302.103z"/>
	</g>
</g>
</svg>
